<?xml version="1.0" standalone="no"?><!DOCTYPE svg PUBLIC "-//W3C//DTD SVG 1.1//EN" "http://www.w3.org/Graphics/SVG/1.1/DTD/svg11.dtd"><svg t="1622385778134" class="icon" viewBox="0 0 1170 1024" version="1.1" xmlns="http://www.w3.org/2000/svg" p-id="1191" xmlns:xlink="http://www.w3.org/1999/xlink" width="228.515625" height="200"><defs><style type="text/css"></style></defs><path d="M1150.832055 555.944229H19.458341c-20.699429 0-25.7024-11.819886-11.044572-26.243658L558.477312 10.825143a38.268343 38.268343 0 0 1 53.335771 0l550.063543 518.875428c14.657829 14.423771 9.654857 26.243657-11.044571 26.243658z m-980.523886 59.713828h829.674057v371.229257c0 20.436114-17.013029 37.112686-37.712457 37.112686H735.995026c-20.699429 0-37.712457-16.676571-37.712457-37.112686V748.397714c0-20.436114-17.013029-37.112686-37.712457-37.112685H509.720283c-20.699429 0-37.712457 16.676571-37.712457 37.112685v238.474972c0 20.436114-17.013029 37.112686-37.712457 37.112685H208.020626c-20.699429 0-37.712457-16.676571-37.712457-37.112685V615.658057z" fill="#0084FF" p-id="1192"></path></svg>