<?xml version="1.0" standalone="no"?><!DOCTYPE svg PUBLIC "-//W3C//DTD SVG 1.1//EN" "http://www.w3.org/Graphics/SVG/1.1/DTD/svg11.dtd"><svg t="1622385847740" class="icon" viewBox="0 0 1024 1024" version="1.1" xmlns="http://www.w3.org/2000/svg" p-id="2805" xmlns:xlink="http://www.w3.org/1999/xlink" width="200" height="200"><defs><style type="text/css"></style></defs><path d="M365.881279 914.118721m-109.24367 0a109.24367 109.24367 0 1 0 218.487339 0 109.24367 109.24367 0 1 0-218.487339 0Z" fill="#4A9ED8" p-id="2806"></path><path d="M829.635533 914.118721m-109.243669 0a109.24367 109.24367 0 1 0 218.487339 0 109.24367 109.24367 0 1 0-218.487339 0Z" fill="#4A9ED8" p-id="2807"></path><path d="M119.551681 0h164.290577a102.655044 102.655044 0 0 1 102.655044 102.655044v63.760896H119.551681A83.314238 83.314238 0 0 1 36.237443 83.314238 83.314238 83.314238 0 0 1 119.551681 0zM850.676629 699.457036l-484.582814 31.242839a120.083022 120.083022 0 0 1-126.034039-101.379825L168.860108 166.628477h713.69697a104.992943 104.992943 0 0 1 103.717725 122.420921l-56.109589 338.570361a86.07721 86.07721 0 0 1-79.488585 71.837277z" fill="#4A9ED8" p-id="2808"></path></svg>